<svg xmlns="http://www.w3.org/2000/svg" viewBox="0 0 30 20" role="img" aria-label="United States"><rect width="30" height="20" fill="#fff"/><path d="M0 0h30v1.55H0zm0 3.1h30v1.55H0zm0 6.2h30v1.55H0zm0 3.1h30v1.55H0zm0 3.1h30v1.55H0zm0 3.1h30V20H0zm0-12.4h30v1.55H0z" fill="#b22234"/><rect width="12.5" height="10.85" fill="#3c3b6e"/><g fill="#fff"><circle cx="2" cy="2" r=".5"/><circle cx="5" cy="2" r=".5"/><circle cx="8" cy="2" r=".5"/><circle cx="11" cy="2" r=".5"/><circle cx="3.5" cy="4.5" r=".5"/><circle cx="6.5" cy="4.5" r=".5"/><circle cx="9.5" cy="4.5" r=".5"/><circle cx="2" cy="7" r=".5"/><circle cx="5" cy="7" r=".5"/><circle cx="8" cy="7" r=".5"/><circle cx="11" cy="7" r=".5"/><circle cx="3.5" cy="9.5" r=".5"/><circle cx="6.5" cy="9.5" r=".5"/><circle cx="9.5" cy="9.5" r=".5"/></g></svg>
